<svg width="441" height="105" viewBox="0 0 441 105" fill="none" xmlns="http://www.w3.org/2000/svg">
<g filter="url(#filter0_d_2102_134)">
<path d="M11.2445 20.3266C9.06335 19.3918 7.4275 18.3791 6.33693 17.2886C5.32426 16.1201 4.81793 14.9516 4.81793 13.7832C4.81793 12.381 5.55795 11.0178 7.03801 9.69354C8.59597 8.36927 10.7771 7.2787 13.5814 6.42183C14.8278 6.03234 16.97 5.64285 20.008 5.25337C23.046 4.78598 26.6293 4.35754 30.7579 3.96805C34.8865 3.57856 39.2487 3.26697 43.8447 3.03327C48.5186 2.79958 53.1145 2.68274 57.6326 2.68274C62.1507 2.68274 66.3571 2.83853 70.252 3.15013C74.1469 3.46172 77.3797 4.007 79.9503 4.78598C82.5209 5.48706 84.0789 6.49973 84.6242 7.82399C84.8579 8.29138 84.9747 8.83666 84.9747 9.45984C84.9747 10.7841 84.5073 12.2252 83.5726 13.7832C82.6378 15.2632 81.5083 16.6654 80.184 17.9896C79.8724 18.3791 79.5219 18.5739 79.1324 18.5739C78.665 18.5739 78.4313 18.3402 78.4313 17.8728C78.4313 17.5612 78.5871 17.2496 78.8987 16.938C81.0019 14.7569 81.8588 12.6536 81.4693 10.6283C81.2356 9.38194 80.2619 8.36927 78.5481 7.5903C76.8344 6.81132 74.6533 6.22709 72.0047 5.8376C69.4341 5.37021 66.6687 5.05862 63.7086 4.90282C60.8264 4.74703 58.0221 4.66913 55.2957 4.66913C53.1924 4.66913 51.245 4.70808 49.4533 4.78598C47.7396 4.78598 46.3764 4.82493 45.3637 4.90282C41.5467 5.05862 37.7297 5.37021 33.9127 5.8376C30.1736 6.22709 26.7461 6.69447 23.6302 7.23975C20.5922 7.70714 18.0995 8.25243 16.152 8.87561C13.5035 9.65459 11.3224 10.5504 9.60864 11.5631C7.97279 12.5758 7.15486 13.6274 7.15486 14.7179C7.15486 15.419 7.5054 16.159 8.20648 16.938C8.98546 17.6391 10.2318 18.3402 11.9456 19.0413C12.1793 19.1192 12.2961 19.275 12.2961 19.5087C12.2961 20.2097 11.9456 20.4824 11.2445 20.3266ZM30.2905 75.1276C28.4988 75.1276 27.0188 74.6213 25.8503 73.6086C24.6819 72.596 23.786 71.3496 23.1628 69.8695C22.3839 67.7663 21.9944 65.2736 21.9944 62.3914C21.9944 59.8207 22.2281 57.2501 22.6955 54.6795C23.2407 52.031 23.825 49.733 24.4482 47.7855C26.084 42.878 28.3041 38.0094 31.1084 33.1797C33.9906 28.2721 37.1065 23.6372 40.4561 19.275C43.8836 14.9127 47.1943 10.9788 50.3881 7.47345C50.5439 7.31765 50.9723 7.16186 51.6734 7.00606C52.3745 6.77237 53.0366 6.65552 53.6598 6.65552C54.6725 6.65552 55.1788 6.88921 55.1788 7.3566C55.1788 7.82399 54.8672 8.36927 54.244 8.99246C50.9723 12.4979 47.5448 16.5096 43.9615 21.0277C40.3782 25.5457 37.0676 30.3364 34.0296 35.3998C30.9916 40.4631 28.6546 45.5654 27.0188 50.7067C25.6945 54.8353 25.0324 58.7691 25.0324 62.5082C25.0324 63.5988 25.1103 64.7283 25.2661 65.8968C25.4219 66.9873 25.6166 68.0779 25.8503 69.1685C26.2398 70.6485 27.0188 71.817 28.1873 72.6739C29.4336 73.6086 30.6021 73.9202 31.6927 73.6086L32.16 73.4918C32.7832 73.4918 33.0948 73.7255 33.0948 74.1929C33.0948 74.6603 32.6664 74.9329 31.8095 75.0108C31.4979 75.0887 31.2253 75.1276 30.9916 75.1276C30.7579 75.1276 30.5242 75.1276 30.2905 75.1276ZM51.9582 68.5842C51.413 68.5842 50.9845 68.2726 50.6729 67.6495C50.3613 67.0263 50.2055 66.2862 50.2055 65.4294C50.2055 64.183 50.3613 62.8198 50.6729 61.3397C51.0624 59.7818 51.4519 58.3796 51.8414 57.1333C52.2309 55.809 52.5035 54.9132 52.6593 54.4458C53.7499 51.5636 55.152 48.2919 56.8658 44.6307C58.5795 40.8916 60.6049 37.2693 62.9418 33.7639C65.3566 30.1806 68.0052 27.1037 70.8874 24.5331C73.7696 21.8845 76.8855 20.1708 80.2351 19.3918C80.6246 19.3139 80.9751 19.275 81.2867 19.275C81.6762 19.1971 82.0268 19.1581 82.3384 19.1581C83.5847 19.1581 84.5974 19.4308 85.3764 19.976C86.1553 20.4434 86.6617 21.0666 86.8954 21.8456C86.8954 21.9235 86.8954 22.0014 86.8954 22.0793C86.9733 22.1572 87.0122 22.274 87.0122 22.4298C87.0122 22.8193 86.8954 23.014 86.6617 23.014C86.2722 23.014 86.0385 22.7414 85.9606 22.1961C85.8827 21.8066 85.5322 21.534 84.909 21.3782C84.2858 21.1445 83.5847 21.0277 82.8057 21.0277C80.2351 21.0277 77.6255 22.1572 74.977 24.4162C72.4064 26.5973 69.8747 29.4017 67.382 32.8292C64.9672 36.1788 62.7471 39.6452 60.7217 43.2285C58.7743 46.8118 57.1774 50.0056 55.931 52.8099C55.8531 52.9657 55.6194 53.55 55.2299 54.5626C54.9184 55.5753 54.5678 56.7827 54.1783 58.1849C53.7888 59.587 53.4772 60.9503 53.2435 62.2745L56.3984 57.6007C58.1901 54.9521 60.3712 52.3036 62.9418 49.6551C65.5124 46.9287 68.3168 44.7086 71.3548 42.9948C71.6664 42.839 71.978 42.7222 72.2895 42.6443C72.679 42.5664 73.0296 42.5274 73.3412 42.5274C74.0422 42.5274 74.3928 42.7611 74.3928 43.2285C74.3928 43.3843 74.198 43.7738 73.8086 44.397C72.1727 46.5781 70.8874 48.8761 69.9526 51.2909C69.0178 53.6279 68.4336 56.1985 68.1999 59.0028C68.122 60.7166 68.2778 62.3135 68.6673 63.7935C69.1347 65.2736 70.1084 66.0136 71.5885 66.0136C73.2243 66.0136 74.8212 65.3125 76.3792 63.9104C78.015 62.4303 79.4951 60.7555 80.8194 58.886C82.2215 56.9385 83.4289 55.2248 84.4416 53.7447C84.5974 53.511 84.7142 53.3942 84.7921 53.3942C85.0258 53.3942 85.1427 53.6279 85.1427 54.0953C85.1427 54.5626 84.9479 55.1079 84.5584 55.7311C83.3121 57.6007 81.9489 59.4702 80.4688 61.3397C79.0667 63.2093 77.5476 64.7672 75.9118 66.0136C74.2759 67.26 72.4843 67.8832 70.5368 67.8832C68.5894 67.8832 67.1872 67.1431 66.3304 65.6631C65.4735 64.183 65.0451 62.3914 65.0451 60.2881C65.0451 58.0291 65.3956 55.6143 66.0967 53.0436C66.8757 50.473 67.7715 48.3308 68.7841 46.6171C66.7588 48.0971 64.6556 49.9667 62.4744 52.2257C60.2933 54.4068 58.4237 56.7438 56.8658 59.2365C56.3205 60.2492 55.5415 61.5345 54.5289 63.0924C53.5162 64.5725 52.932 65.8189 52.7762 66.8315C52.5425 68 52.2698 68.5842 51.9582 68.5842ZM91.8677 68.9348C88.6739 68.9348 86.337 68.2337 84.8569 66.8315C83.3769 65.3515 82.6369 63.404 82.6369 60.9892C82.6369 60.366 82.6758 59.7428 82.7537 59.1197C82.9095 58.4186 83.0653 57.7175 83.2211 57.0164C83.6106 55.6143 84.2338 53.9784 85.0906 52.1089C86.0254 50.2393 87.1549 48.4087 88.4792 46.6171C89.8035 44.8254 91.2446 43.3454 92.8025 42.1769C94.3605 41.0084 95.9963 40.4242 97.7101 40.4242C99.1122 40.4242 100.164 40.9305 100.865 41.9432C101.644 42.9559 102.033 44.1633 102.033 45.5654C102.033 47.0455 101.566 48.5645 100.631 50.1225C99.7744 51.6025 98.6059 52.8099 97.1258 53.7447C95.4121 54.9132 93.4647 55.4974 91.2835 55.4974C89.8814 55.4974 88.596 55.2248 87.4276 54.6795C86.2591 57.0164 85.6749 59.3144 85.6749 61.5734C85.6749 63.2093 86.1423 64.6114 87.077 65.7799C88.0118 66.9484 89.5698 67.5326 91.7509 67.5326C94.3994 67.5326 96.7364 66.9094 98.7617 65.6631C100.787 64.3388 102.657 62.6251 104.37 60.5218C106.162 58.4186 107.876 56.1595 109.512 53.7447C109.745 53.511 109.901 53.3942 109.979 53.3942C110.213 53.3942 110.33 53.5889 110.33 53.9784C110.33 54.3679 110.213 54.7574 109.979 55.1469C108.577 57.328 106.98 59.4702 105.188 61.5734C103.475 63.6767 101.527 65.4294 99.3459 66.8315C97.1648 68.2337 94.6721 68.9348 91.8677 68.9348ZM90.115 53.8616C92.1404 53.8616 94.0489 53.1605 95.8405 51.7583C96.6974 51.1351 97.4374 50.3951 98.0606 49.5382C98.6838 48.6814 99.1122 47.8245 99.3459 46.9676C99.5796 46.1107 99.6965 45.3707 99.6965 44.7475C99.6965 42.9559 99.0343 42.06 97.7101 42.06C96.8532 42.06 95.8795 42.5664 94.7889 43.5791C93.8541 44.4359 92.8804 45.5265 91.8677 46.8508C90.933 48.175 90.115 49.4603 89.414 50.7067C88.7129 51.8752 88.2455 52.732 88.0118 53.2773C88.5571 53.6668 89.2582 53.8616 90.115 53.8616ZM150.412 69.519C146.985 69.519 143.635 69.2074 140.364 68.5842C138.65 68.1947 137.209 67.7274 136.04 67.1821C134.95 66.6368 133.976 66.2084 133.119 65.8968C132.029 65.3515 131.483 64.7283 131.483 64.0272C131.483 63.7156 131.717 63.5598 132.184 63.5598C132.34 63.5598 132.496 63.5598 132.652 63.5598C132.808 63.5598 133.002 63.6377 133.236 63.7935C134.404 64.2609 135.651 64.7672 136.975 65.3125C138.299 65.8578 139.663 66.2084 141.065 66.3641C141.688 66.442 142.506 66.5199 143.519 66.5978C144.531 66.6757 145.583 66.7147 146.673 66.7147C148.777 66.7147 150.958 66.5589 153.217 66.2473C155.476 65.8578 157.384 65.2346 158.942 64.3778C160.5 63.443 161.279 62.1187 161.279 60.405C161.279 59.4702 160.656 58.3017 159.41 56.8996C158.163 55.4974 156.566 53.9005 154.619 52.1089C152.672 50.2393 150.646 48.214 148.543 46.0328C146.518 43.8517 144.726 41.5537 143.168 39.1389C141.766 36.8798 140.558 34.504 139.546 32.0112C138.611 29.4406 138.144 26.831 138.144 24.1825C138.144 19.976 139.117 16.3538 141.065 13.3158C143.09 10.2778 145.739 7.78504 149.01 5.8376C152.36 3.89015 155.943 2.44904 159.76 1.51427C163.655 0.501602 167.472 -0.00473406 171.211 -0.00473406C173.081 -0.00473406 174.833 0.112111 176.469 0.345801C178.573 0.579496 180.832 1.12478 183.246 1.98166C185.739 2.76064 187.842 3.96805 189.556 5.6039C191.348 7.23976 192.244 9.42089 192.244 12.1473C192.244 15.0295 191.348 17.7949 189.556 20.4434C187.764 23.0919 185.544 25.4289 182.896 27.4542C180.325 29.4017 177.794 30.8817 175.301 31.8944C174.833 32.0502 174.444 32.1281 174.132 32.1281C173.587 32.1281 173.314 32.0112 173.314 31.7775C173.314 31.6218 173.509 31.427 173.899 31.1933C174.288 30.8817 174.522 30.687 174.6 30.6091C176.391 29.2069 178.105 27.9606 179.741 26.87C181.455 25.7015 182.974 24.3383 184.298 22.7804C185.856 20.9887 186.985 19.275 187.687 17.6391C188.466 15.9254 188.855 14.3285 188.855 12.8484C188.855 10.3557 187.803 8.25243 185.7 6.53868C183.675 4.82492 180.715 3.73436 176.82 3.26697C176.119 3.18907 175.418 3.15013 174.717 3.15013C174.015 3.07222 173.314 3.03327 172.613 3.03327C168.952 3.03327 165.252 3.57856 161.513 4.66913C157.774 5.6818 154.346 7.20081 151.23 9.22615C148.114 11.1736 145.583 13.5105 143.635 16.2369C141.766 18.9634 140.831 22.0403 140.831 25.4678C140.831 29.4406 142.311 33.6081 145.271 37.9704C146.907 40.3074 148.855 42.5664 151.114 44.7475C153.373 46.9287 155.593 49.0319 157.774 51.0572C160.033 53.0047 161.863 54.8742 163.266 56.6659C164.746 58.4575 165.486 60.1323 165.486 61.6903C165.486 63.6377 164.746 65.1957 163.266 66.3641C161.863 67.5326 159.994 68.3505 157.657 68.8179C155.398 69.2853 152.983 69.519 150.412 69.519ZM179.004 68.8179C177.602 68.8179 176.589 68.3505 175.966 67.4158C175.343 66.481 175.031 65.3125 175.031 63.9104C175.031 62.8198 175.148 61.7682 175.382 60.7555C175.538 60.2881 175.927 59.1197 176.551 57.2501C177.252 55.3806 178.147 53.3163 179.238 51.0572C180.406 48.7982 181.653 46.8508 182.977 45.2149C184.301 43.5012 185.665 42.6443 187.067 42.6443C187.69 42.6443 188.001 42.8001 188.001 43.1117C188.001 43.4233 187.846 43.7349 187.534 44.0464C185.976 45.916 184.496 48.1361 183.094 50.7067C181.77 53.1994 180.64 55.5753 179.705 57.8343C178.848 60.0934 178.342 61.8071 178.186 62.9756C177.953 65.4683 178.693 66.7147 180.406 66.7147C182.354 66.7147 184.379 65.6241 186.482 63.443C188.664 61.2618 190.611 58.7302 192.325 55.848C192.87 54.9911 193.532 53.9005 194.311 52.5762C195.09 51.1741 195.947 49.9277 196.882 48.8372C197.894 47.7466 198.868 47.2013 199.803 47.2013C200.426 47.2013 200.738 47.3571 200.738 47.6687C200.738 47.9803 200.582 48.2919 200.27 48.6035C199.18 49.9277 198.128 51.6415 197.116 53.7447C196.103 55.848 195.285 57.8733 194.662 59.8207C194.116 61.6903 193.844 63.0924 193.844 64.0272C193.844 66.2862 194.818 67.4158 196.765 67.4158C198.868 67.4158 201.01 66.5589 203.192 64.8451C205.373 63.1314 207.359 60.9892 209.151 58.4186C211.02 55.7701 212.5 53.0826 213.591 50.3562C214.759 47.6297 215.344 45.2928 215.344 43.3454C215.344 41.0863 214.604 39.801 213.123 39.4894C212.89 39.4894 212.773 39.4115 212.773 39.2557C212.773 38.8662 213.201 38.6715 214.058 38.6715C215.383 38.6715 216.356 39.2168 216.979 40.3073C217.603 41.3979 217.914 42.7222 217.914 44.2801C217.914 47.3181 217.018 50.473 215.227 53.7447C213.513 56.9385 211.293 59.8597 208.566 62.5082C205.84 65.0788 202.958 66.9094 199.92 68C198.518 68.4674 197.232 68.7011 196.064 68.7011C194.506 68.7011 193.221 68.2726 192.208 67.4158C191.273 66.5589 190.806 65.2736 190.806 63.5598C190.806 62.703 190.923 61.7682 191.156 60.7555C191.156 60.5997 191.156 60.4439 191.156 60.2881C191.234 60.1323 191.312 59.9376 191.39 59.7039C189.91 61.6513 188.352 63.404 186.716 64.962C185.158 66.5199 183.6 67.5716 182.042 68.1168C180.874 68.5842 179.861 68.8179 179.004 68.8179ZM227.885 68.9348C224.691 68.9348 222.354 68.2337 220.874 66.8315C219.394 65.3515 218.654 63.404 218.654 60.9892C218.654 60.366 218.693 59.7428 218.77 59.1197C218.926 58.4186 219.082 57.7175 219.238 57.0164C219.627 55.6143 220.251 53.9784 221.107 52.1089C222.042 50.2393 223.172 48.4087 224.496 46.6171C225.82 44.8254 227.261 43.3454 228.819 42.1769C230.377 41.0084 232.013 40.4242 233.727 40.4242C235.129 40.4242 236.181 40.9305 236.882 41.9432C237.661 42.9559 238.05 44.1633 238.05 45.5654C238.05 47.0455 237.583 48.5645 236.648 50.1225C235.791 51.6025 234.623 52.8099 233.143 53.7447C231.429 54.9132 229.481 55.4974 227.3 55.4974C225.898 55.4974 224.613 55.2248 223.444 54.6795C222.276 57.0164 221.692 59.3144 221.692 61.5734C221.692 63.2093 222.159 64.6114 223.094 65.7799C224.029 66.9484 225.587 67.5326 227.768 67.5326C230.416 67.5326 232.753 66.9094 234.778 65.6631C236.804 64.3388 238.673 62.6251 240.387 60.5218C242.179 58.4186 243.892 56.1595 245.528 53.7447C245.762 53.511 245.918 53.3942 245.996 53.3942C246.229 53.3942 246.346 53.5889 246.346 53.9784C246.346 54.3679 246.229 54.7574 245.996 55.1469C244.594 57.328 242.997 59.4702 241.205 61.5734C239.491 63.6767 237.544 65.4294 235.363 66.8315C233.182 68.2337 230.689 68.9348 227.885 68.9348ZM226.132 53.8616C228.157 53.8616 230.066 53.1605 231.857 51.7583C232.714 51.1351 233.454 50.3951 234.077 49.5382C234.701 48.6814 235.129 47.8245 235.363 46.9676C235.596 46.1107 235.713 45.3707 235.713 44.7475C235.713 42.9559 235.051 42.06 233.727 42.06C232.87 42.06 231.896 42.5664 230.806 43.5791C229.871 44.4359 228.897 45.5265 227.885 46.8508C226.95 48.175 226.132 49.4603 225.431 50.7067C224.73 51.8752 224.262 52.732 224.029 53.2773C224.574 53.6668 225.275 53.8616 226.132 53.8616ZM252.988 68.9348C249.794 68.9348 247.458 68.2337 245.977 66.8315C244.497 65.3515 243.757 63.404 243.757 60.9892C243.757 60.366 243.796 59.7428 243.874 59.1197C244.03 58.4186 244.186 57.7175 244.342 57.0164C244.731 55.6143 245.354 53.9784 246.211 52.1089C247.146 50.2393 248.275 48.4087 249.6 46.6171C250.924 44.8254 252.365 43.3454 253.923 42.1769C255.481 41.0084 257.117 40.4242 258.831 40.4242C260.233 40.4242 261.284 40.9305 261.985 41.9432C262.764 42.9559 263.154 44.1633 263.154 45.5654C263.154 47.0455 262.687 48.5645 261.752 50.1225C260.895 51.6025 259.726 52.8099 258.246 53.7447C256.533 54.9132 254.585 55.4974 252.404 55.4974C251.002 55.4974 249.717 55.2248 248.548 54.6795C247.38 57.0164 246.795 59.3144 246.795 61.5734C246.795 63.2093 247.263 64.6114 248.198 65.7799C249.132 66.9484 250.69 67.5326 252.871 67.5326C255.52 67.5326 257.857 66.9094 259.882 65.6631C261.908 64.3388 263.777 62.6251 265.491 60.5218C267.283 58.4186 268.996 56.1595 270.632 53.7447C270.866 53.511 271.022 53.3942 271.1 53.3942C271.333 53.3942 271.45 53.5889 271.45 53.9784C271.45 54.3679 271.333 54.7574 271.1 55.1469C269.697 57.328 268.1 59.4702 266.309 61.5734C264.595 63.6767 262.648 65.4294 260.466 66.8315C258.285 68.2337 255.793 68.9348 252.988 68.9348ZM251.236 53.8616C253.261 53.8616 255.169 53.1605 256.961 51.7583C257.818 51.1351 258.558 50.3951 259.181 49.5382C259.804 48.6814 260.233 47.8245 260.466 46.9676C260.7 46.1107 260.817 45.3707 260.817 44.7475C260.817 42.9559 260.155 42.06 258.831 42.06C257.974 42.06 257 42.5664 255.909 43.5791C254.975 44.4359 254.001 45.5265 252.988 46.8508C252.054 48.175 251.236 49.4603 250.535 50.7067C249.833 51.8752 249.366 52.732 249.132 53.2773C249.678 53.6668 250.379 53.8616 251.236 53.8616ZM271.198 68.8179C269.796 68.8179 268.783 68.3505 268.16 67.4158C267.537 66.481 267.225 65.3125 267.225 63.9104C267.225 62.8198 267.342 61.7682 267.576 60.7555C267.81 59.6649 268.55 57.8733 269.796 55.3806C271.042 52.8099 272.406 50.1225 273.886 47.3181C273.107 47.6297 272.25 47.9803 271.315 48.3698C270.458 48.6814 269.835 49.0319 269.445 49.4214C269.134 49.5772 268.939 49.6551 268.861 49.6551C268.627 49.6551 268.511 49.4993 268.511 49.1877C268.511 48.4866 268.939 47.8245 269.796 47.2013C270.653 46.5781 271.471 46.1497 272.25 45.916C273.107 45.6823 274.08 45.4097 275.171 45.0981C276.028 43.5401 276.924 41.9432 277.858 40.3073C278.871 38.5936 279.767 37.1135 280.546 35.8672C281.091 35.0882 281.87 34.1145 282.883 32.946C283.895 31.6996 285.025 30.687 286.271 29.908C286.972 29.4406 287.907 29.2069 289.076 29.2069C289.933 29.2069 290.4 29.3627 290.478 29.6743C289.309 29.9859 288.102 30.7649 286.856 32.0112C285.687 33.2576 284.558 34.6987 283.467 36.3346C282.376 37.9704 281.442 39.5284 280.663 41.0084C279.884 42.4106 279.299 43.5012 278.91 44.2801C280.546 44.0464 281.909 43.9296 283 43.9296C283.623 43.9296 284.168 43.9685 284.635 44.0464C285.103 44.0464 285.492 44.0854 285.804 44.1633C286.427 44.2412 286.739 44.4359 286.739 44.7475C286.739 45.0591 286.349 45.2149 285.57 45.2149C284.947 45.2149 284.207 45.2149 283.35 45.2149C282.571 45.2149 281.714 45.2928 280.78 45.4486C280.078 45.5265 279.338 45.7602 278.559 46.1497C277.858 46.5392 277.391 46.9676 277.157 47.435C275.444 50.5509 273.925 53.55 272.6 56.4322C271.276 59.3144 270.536 61.4955 270.38 62.9756C270.146 65.4683 270.887 66.7147 272.6 66.7147C274.314 66.7147 276.028 65.9747 277.742 64.4946C279.533 62.9366 281.208 61.145 282.766 59.1197C284.324 57.0943 285.57 55.3806 286.505 53.9784C286.817 53.6668 287.011 53.511 287.089 53.511C287.323 53.511 287.44 53.7058 287.44 54.0953C287.44 54.4068 287.323 54.7574 287.089 55.1469C285.765 57.1722 284.246 59.2365 282.532 61.3397C280.818 63.443 278.988 65.2346 277.04 66.7147C275.171 68.1168 273.223 68.8179 271.198 68.8179ZM327.508 69.519C324.081 69.519 320.731 69.2074 317.459 68.5842C315.746 68.1947 314.304 67.7274 313.136 67.1821C312.045 66.6368 311.072 66.2084 310.215 65.8968C309.124 65.3515 308.579 64.7283 308.579 64.0272C308.579 63.7156 308.813 63.5598 309.28 63.5598C309.436 63.5598 309.592 63.5598 309.747 63.5598C309.903 63.5598 310.098 63.6377 310.332 63.7935C311.5 64.2609 312.746 64.7672 314.071 65.3125C315.395 65.8578 316.758 66.2084 318.16 66.3641C318.784 66.442 319.601 66.5199 320.614 66.5978C321.627 66.6757 322.678 66.7147 323.769 66.7147C325.872 66.7147 328.053 66.5589 330.312 66.2473C332.571 65.8578 334.48 65.2346 336.038 64.3778C337.596 63.443 338.375 62.1187 338.375 60.405C338.375 59.4702 337.752 58.3017 336.505 56.8996C335.259 55.4974 333.662 53.9005 331.715 52.1089C329.767 50.2393 327.742 48.214 325.639 46.0328C323.613 43.8517 321.822 41.5537 320.264 39.1389C318.861 36.8798 317.654 34.504 316.641 32.0112C315.707 29.4406 315.239 26.831 315.239 24.1825C315.239 19.976 316.213 16.3538 318.16 13.3158C320.186 10.2778 322.834 7.78504 326.106 5.8376C329.456 3.89015 333.039 2.44904 336.856 1.51427C340.751 0.501602 344.568 -0.00473406 348.307 -0.00473406C350.176 -0.00473406 351.929 0.112111 353.565 0.345801C355.668 0.579496 357.927 1.12478 360.342 1.98166C362.835 2.76064 364.938 3.96805 366.652 5.6039C368.443 7.23976 369.339 9.42089 369.339 12.1473C369.339 15.0295 368.443 17.7949 366.652 20.4434C364.86 23.0919 362.64 25.4289 359.991 27.4542C357.421 29.4017 354.889 30.8817 352.396 31.8944C351.929 32.0502 351.54 32.1281 351.228 32.1281C350.683 32.1281 350.41 32.0112 350.41 31.7775C350.41 31.6218 350.605 31.427 350.994 31.1933C351.384 30.8817 351.617 30.687 351.695 30.6091C353.487 29.2069 355.201 27.9606 356.837 26.87C358.55 25.7015 360.069 24.3383 361.394 22.7804C362.952 20.9887 364.081 19.275 364.782 17.6391C365.561 15.9254 365.951 14.3285 365.951 12.8484C365.951 10.3557 364.899 8.25243 362.796 6.53868C360.77 4.82492 357.81 3.73436 353.915 3.26697C353.214 3.18907 352.513 3.15013 351.812 3.15013C351.111 3.07222 350.41 3.03327 349.709 3.03327C346.048 3.03327 342.348 3.57856 338.609 4.66913C334.869 5.6818 331.442 7.20081 328.326 9.22615C325.21 11.1736 322.678 13.5105 320.731 16.2369C318.861 18.9634 317.927 22.0403 317.927 25.4678C317.927 29.4406 319.407 33.6081 322.367 37.9704C324.003 40.3074 325.95 42.5664 328.209 44.7475C330.468 46.9287 332.688 49.0319 334.869 51.0572C337.128 53.0047 338.959 54.8742 340.361 56.6659C341.841 58.4575 342.581 60.1323 342.581 61.6903C342.581 63.6377 341.841 65.1957 340.361 66.3641C338.959 67.5326 337.09 68.3505 334.753 68.8179C332.494 69.2853 330.079 69.519 327.508 69.519ZM326.07 96.2769C324.59 96.2769 323.188 96.0432 321.864 95.5758C320.462 95.1863 319.215 94.5242 318.125 93.5894C317.502 92.9662 317.073 92.2262 316.839 91.3693C316.528 90.5903 316.372 89.8503 316.372 89.1492C316.372 88.4482 316.489 87.825 316.723 87.2797C316.878 86.8123 317.073 86.5786 317.307 86.5786C317.541 86.5786 317.774 87.1628 318.008 88.3313C318.32 90.5124 319.332 92.1483 321.046 93.2389C322.76 94.4073 324.629 94.9916 326.655 94.9916C329.615 94.9916 332.497 94.0957 335.301 92.3041C338.028 90.5124 340.637 88.1755 343.13 85.2933C345.623 82.4111 347.96 79.2562 350.141 75.8287C352.244 72.4791 354.114 69.1685 355.749 65.8968C355.126 65.4294 354.581 64.962 354.114 64.4946C353.646 63.9493 353.412 63.404 353.412 62.8587C353.412 62.3914 353.607 62.0019 353.997 61.6903C354.308 61.3787 354.659 61.2229 355.048 61.2229C355.438 61.2229 355.788 61.4566 356.1 61.924C356.489 62.3135 356.84 62.703 357.152 63.0924C358.008 61.3008 358.826 59.5091 359.605 57.7175C360.384 55.848 361.241 53.9395 362.176 51.992C362.799 50.6678 363.539 49.0708 364.396 47.2013C365.331 45.2539 366.266 43.4233 367.2 41.7095C366.499 40.9305 365.72 40.3463 364.863 39.9568C364.007 39.4894 363.111 39.3336 362.176 39.4894C361.397 39.5673 361.163 39.4894 361.475 39.2557C361.786 39.022 361.981 38.8662 362.059 38.7883C362.527 38.5547 363.033 38.4378 363.578 38.4378C364.357 38.4378 365.097 38.6325 365.798 39.022C366.577 39.3336 367.317 39.7621 368.018 40.3073C369.265 37.9704 370.355 36.4514 371.29 35.7503C371.991 35.2829 372.536 35.0493 372.926 35.0493C373.393 35.0493 373.627 35.2829 373.627 35.7503C373.627 36.4514 373.004 37.3862 371.757 38.5547C371.446 38.7883 371.017 39.2168 370.472 39.84C369.927 40.4631 369.498 41.0084 369.187 41.4758C370.823 42.9559 372.264 44.7086 373.51 46.7339C374.834 48.6814 375.73 50.1225 376.198 51.0572C377.678 53.9395 378.418 56.4322 378.418 58.5354C378.418 60.9503 377.678 62.9366 376.198 64.4946C374.718 66.0526 372.926 67.1042 370.823 67.6495C374.718 67.3379 378.028 65.9357 380.755 63.443C383.559 60.9503 386.285 57.7175 388.934 53.7447C389.012 53.5889 389.129 53.511 389.284 53.511C389.596 53.511 389.752 53.7058 389.752 54.0953C389.752 54.3289 389.635 54.6405 389.401 55.03C386.675 59.1586 383.676 62.5472 380.404 65.1957C377.132 67.8442 372.809 69.1685 367.434 69.1685C365.72 69.1685 364.162 68.9737 362.76 68.5842C361.358 68.2726 359.995 67.9221 358.671 67.5326L358.32 67.4158C358.008 68.0389 357.736 68.6621 357.502 69.2853C357.268 69.9085 356.996 70.4927 356.684 71.038C353.257 77.893 349.323 83.5795 344.883 88.0976C340.365 92.6936 334.678 95.3811 327.823 96.16C327.511 96.16 327.239 96.16 327.005 96.16C326.694 96.2379 326.382 96.2769 326.07 96.2769ZM365.565 67.4158C367.824 67.3379 369.849 66.6368 371.641 65.3125C373.51 63.9104 374.445 61.6513 374.445 58.5354C374.445 57.2112 374.25 55.809 373.861 54.3289C373.471 52.771 372.848 51.0183 371.991 49.0708C371.524 48.0582 370.978 47.0455 370.355 46.0328C369.81 44.9423 369.148 43.9296 368.369 42.9948C367.356 45.0981 366.421 47.2013 365.565 49.3045C364.708 51.4078 364.007 53.0436 363.461 54.2121C362.838 55.848 362.137 57.6785 361.358 59.7039C360.657 61.6513 359.917 63.5598 359.138 65.4294C361.085 66.7536 363.228 67.4158 365.565 67.4158ZM394.555 68.4674C392.452 68.4674 390.621 67.9611 389.063 66.9484C387.506 65.8578 386.727 63.9493 386.727 61.2229C386.727 59.5091 387.155 57.6396 388.012 55.6143C388.869 53.511 389.959 51.4857 391.284 49.5382C392.686 47.5129 394.205 45.8381 395.841 44.5138C396.23 44.2022 396.736 44.0464 397.36 44.0464C398.294 43.1117 399.346 42.4106 400.514 41.9432C401.761 41.4758 402.929 41.2421 404.02 41.2421C405.967 41.2421 407.759 41.8653 409.395 43.1117C411.109 44.358 411.965 46.3444 411.965 49.0708C411.965 50.6288 411.537 52.4983 410.68 54.6795C409.901 56.7048 408.694 58.8081 407.058 60.9892C405.422 63.0924 403.514 64.8841 401.332 66.3641C399.229 67.7663 396.97 68.4674 394.555 68.4674ZM394.438 67.0652C396.152 67.0652 397.905 66.4031 399.697 65.0788C401.566 63.7546 403.28 62.0798 404.838 60.0544C406.396 57.9512 407.525 55.848 408.226 53.7447C409.005 51.6415 409.395 49.7719 409.395 48.1361C409.395 46.1107 408.85 44.6696 407.759 43.8127C406.668 42.878 405.461 42.4106 404.137 42.4106C402.033 42.4106 400.203 43.1117 398.645 44.5138C399.424 44.9812 399.502 45.4486 398.879 45.916C397.788 46.8508 396.542 48.1361 395.14 49.7719C393.815 51.4078 392.764 52.9268 391.985 54.3289C391.439 55.2637 390.933 56.4711 390.466 57.9512C390.076 59.4312 389.881 60.8334 389.881 62.1577C389.881 63.4819 390.193 64.6504 390.816 65.6631C391.517 66.5978 392.725 67.0652 394.438 67.0652ZM416.914 68.8179C415.512 68.8179 414.499 68.3505 413.876 67.4158C413.253 66.481 412.941 65.3125 412.941 63.9104C412.941 62.8198 413.058 61.7682 413.292 60.7555C413.525 59.6649 414.266 57.8733 415.512 55.3806C416.758 52.8099 418.121 50.1225 419.602 47.3181C418.823 47.6297 417.966 47.9803 417.031 48.3698C416.174 48.6814 415.551 49.0319 415.161 49.4214C414.85 49.5772 414.655 49.6551 414.577 49.6551C414.343 49.6551 414.227 49.4993 414.227 49.1877C414.227 48.4866 414.655 47.8245 415.512 47.2013C416.369 46.5781 417.187 46.1497 417.966 45.916C418.823 45.6823 419.796 45.4097 420.887 45.0981C421.744 43.5401 422.64 41.9432 423.574 40.3073C424.587 38.5936 425.483 37.1135 426.262 35.8672C426.807 35.0882 427.586 34.1145 428.599 32.946C429.611 31.6996 430.741 30.687 431.987 29.908C432.688 29.4406 433.623 29.2069 434.792 29.2069C435.648 29.2069 436.116 29.3627 436.194 29.6743C435.025 29.9859 433.818 30.7649 432.571 32.0112C431.403 33.2576 430.274 34.6987 429.183 36.3346C428.092 37.9704 427.158 39.5284 426.379 41.0084C425.6 42.4106 425.015 43.5012 424.626 44.2801C426.262 44.0464 427.625 43.9296 428.716 43.9296C429.339 43.9296 429.884 43.9685 430.351 44.0464C430.819 44.0464 431.208 44.0854 431.52 44.1633C432.143 44.2412 432.455 44.4359 432.455 44.7475C432.455 45.0591 432.065 45.2149 431.286 45.2149C430.663 45.2149 429.923 45.2149 429.066 45.2149C428.287 45.2149 427.43 45.2928 426.495 45.4486C425.794 45.5265 425.054 45.7602 424.275 46.1497C423.574 46.5392 423.107 46.9676 422.873 47.435C421.159 50.5509 419.64 53.55 418.316 56.4322C416.992 59.3144 416.252 61.4955 416.096 62.9756C415.862 65.4683 416.602 66.7147 418.316 66.7147C420.03 66.7147 421.744 65.9747 423.457 64.4946C425.249 62.9366 426.924 61.145 428.482 59.1197C430.04 57.0943 431.286 55.3806 432.221 53.9784C432.533 53.6668 432.727 53.511 432.805 53.511C433.039 53.511 433.156 53.7058 433.156 54.0953C433.156 54.4068 433.039 54.7574 432.805 55.1469C431.481 57.1722 429.962 59.2365 428.248 61.3397C426.534 63.443 424.704 65.2346 422.756 66.7147C420.887 68.1168 418.939 68.8179 416.914 68.8179Z" fill="white"/>
</g>
<defs>
<filter id="filter0_d_2102_134" x="0.817871" y="-0.00463867" width="439.376" height="104.281" filterUnits="userSpaceOnUse" color-interpolation-filters="sRGB">
<feFlood flood-opacity="0" result="BackgroundImageFix"/>
<feColorMatrix in="SourceAlpha" type="matrix" values="0 0 0 0 0 0 0 0 0 0 0 0 0 0 0 0 0 0 127 0" result="hardAlpha"/>
<feOffset dy="4"/>
<feGaussianBlur stdDeviation="2"/>
<feComposite in2="hardAlpha" operator="out"/>
<feColorMatrix type="matrix" values="0 0 0 0 0 0 0 0 0 0 0 0 0 0 0 0 0 0 0.25 0"/>
<feBlend mode="normal" in2="BackgroundImageFix" result="effect1_dropShadow_2102_134"/>
<feBlend mode="normal" in="SourceGraphic" in2="effect1_dropShadow_2102_134" result="shape"/>
</filter>
</defs>
</svg>
